<?xml version="1.0" standalone="no"?>
<!DOCTYPE svg PUBLIC "-//W3C//DTD SVG 20010904//EN"
 "http://www.w3.org/TR/2001/REC-SVG-20010904/DTD/svg10.dtd">
<svg version="1.0" xmlns="http://www.w3.org/2000/svg"
 width="300.000000pt" height="300.000000pt" viewBox="0 0 300.000000 300.000000"
 preserveAspectRatio="xMidYMid meet">
<metadata>
Created by potrace 1.11, written by Peter Selinger 2001-2013
</metadata>
<g transform="translate(0.000000,300.000000) scale(0.100000,-0.100000)"
fill="#000000" stroke="none">
<path d="M1160 2798 c-29 -79 -63 -170 -76 -203 -12 -33 -70 -186 -129 -340
-58 -154 -135 -356 -170 -450 -35 -93 -78 -206 -95 -250 -62 -159 -71 -189
-64 -220 4 -16 42 -156 86 -310 43 -154 93 -329 110 -390 16 -60 45 -162 63
-225 18 -63 48 -169 66 -235 18 -66 38 -123 44 -127 5 -5 95 -7 199 -5 156 2
190 5 197 17 4 8 32 93 61 189 l52 174 22 -69 c12 -38 37 -118 55 -179 17 -60
36 -116 42 -122 14 -19 380 -18 395 0 6 7 15 31 20 52 5 22 31 114 56 205 26
91 67 235 91 320 24 85 80 284 125 442 l81 287 -65 173 c-36 95 -99 263 -141
373 -70 185 -172 455 -326 865 -34 91 -64 167 -66 170 -2 2 -13 -1 -23 -8 -24
-15 -80 -16 -80 -2 0 6 -6 10 -13 10 -9 0 -20 -32 -32 -92 -20 -101 -32 -135
-45 -122 -11 11 -30 125 -30 177 0 39 -8 45 -40 25 -16 -10 -24 -10 -40 0 -11
6 -23 12 -28 12 -5 0 -14 -46 -20 -102 -19 -156 -38 -153 -69 11 -11 57 -23
91 -30 91 -7 0 -13 -4 -13 -10 0 -5 -18 -10 -39 -10 -22 0 -43 5 -46 10 -17
27 -36 -2 -85 -132z m-95 -1565 c114 -471 121 -498 142 -501 21 -3 15 -23 84
283 18 77 42 183 53 235 l22 95 137 3 c105 2 138 0 141 -10 2 -7 16 -65 30
-128 22 -99 40 -179 97 -433 10 -40 15 -48 32 -45 17 2 25 18 42 88 12 47 48
185 81 308 l59 222 187 0 c145 0 186 -3 183 -12 -2 -7 -20 -71 -40 -143 -60
-215 -85 -307 -105 -375 -22 -77 -51 -181 -120 -430 -29 -102 -61 -215 -72
-253 l-20 -67 -179 0 -178 0 -40 128 c-21 70 -49 162 -62 205 -13 42 -29 77
-36 77 -7 0 -17 -18 -23 -41 -6 -22 -33 -112 -61 -201 -27 -88 -49 -162 -49
-164 0 -2 -81 -4 -179 -4 l-179 0 -15 48 c-9 26 -27 89 -41 140 -110 394 -178
636 -242 860 -35 123 -64 225 -64 228 0 2 87 4 193 4 l193 0 29 -117z"/>
</g>
</svg>
